<?xml version="1.0" encoding="utf-8"?>
<!-- Generator: Adobe Illustrator 16.0.0, SVG Export Plug-In . SVG Version: 6.00 Build 0)  -->
<!DOCTYPE svg PUBLIC "-//W3C//DTD SVG 1.1//EN" "http://www.w3.org/Graphics/SVG/1.1/DTD/svg11.dtd">
<svg version="1.1" id="Layer_1" xmlns="http://www.w3.org/2000/svg" xmlns:xlink="http://www.w3.org/1999/xlink" x="0px" y="0px"
	 width="132px" height="28px" viewBox="0 0 132 28" style="enable-background:new 0 0 132 28;" xml:space="preserve">
<style type="text/css">
<![CDATA[
	.st0{fill-rule:evenodd;clip-rule:evenodd;fill:#D8213A;}
	.st1{fill:#6F6F6F;stroke:#6F6F6F;stroke-width:1.2;stroke-miterlimit:10;}
	.st2{fill:#E60028;}
	.st3{fill-rule:evenodd;clip-rule:evenodd;fill:none;}
	.st4{fill:#222222;}
	.st5{fill:none;stroke:#E60028;stroke-width:1.2;stroke-miterlimit:10;}
	.st6{fill-rule:evenodd;clip-rule:evenodd;}
	.st7{fill:#6F6F6F;stroke:#E60028;stroke-width:1.2;stroke-miterlimit:10;}
	.st8{fill-rule:evenodd;clip-rule:evenodd;fill:#222222;}
	.st9{fill:#FFFFFF;}
	.st10{fill:none;stroke:#FFFFFF;stroke-width:1.5;stroke-miterlimit:10;}
	.st11{fill:none;}
	.st12{fill:#6F6F6F;}
	.st13{fill-rule:evenodd;clip-rule:evenodd;fill:#FFFFFF;}
]]>
</style>
<g>
	<g>
		<rect y="1" class="st0" width="26" height="13"/>
		<rect y="14" class="st6" width="26" height="13"/>
		<rect x="3.9" y="12.7" class="st13" width="18.2" height="2"/>
	</g>
	<rect y="1" class="st3" width="82" height="26"/>
	<g>
		<path class="st4" d="M39.1,25h-1.4l-0.8-2.1H34L33.2,25L32,24.7l3.1-7.8h0.9L39.1,25z M36.5,21.9l-0.7-2.2c-0.1-0.4-0.2-0.8-0.3-1
			h0c-0.1,0.2-0.2,0.6-0.3,1l-0.8,2.2H36.5z"/>
		<path class="st4" d="M43.6,23.3c0,0.6-0.2,1.1-0.7,1.4c-0.4,0.3-0.9,0.4-1.6,0.4c-0.8,0-1.4-0.2-2-0.5l0.4-0.9
			c0.5,0.3,1,0.5,1.5,0.5c0.7,0,1-0.2,1-0.7c0-0.3-0.2-0.6-0.7-0.8c-0.8-0.4-1.2-0.6-1.3-0.6c-0.4-0.3-0.7-0.8-0.7-1.3
			c0-0.5,0.2-0.9,0.5-1.2c0.4-0.3,0.9-0.5,1.5-0.5c0.6,0,1.1,0.1,1.6,0.3v1.1c-0.6-0.2-1.1-0.4-1.5-0.4c-0.6,0-0.9,0.2-0.9,0.6
			c0,0.3,0.2,0.5,0.7,0.7c0.7,0.3,1.2,0.5,1.3,0.6C43.4,22.3,43.6,22.8,43.6,23.3z"/>
		<path class="st4" d="M48.4,23.3c0,0.6-0.2,1.1-0.7,1.4c-0.4,0.3-0.9,0.4-1.6,0.4c-0.8,0-1.4-0.2-2-0.5l0.4-0.9
			c0.5,0.3,1,0.5,1.5,0.5c0.7,0,1-0.2,1-0.7c0-0.3-0.2-0.6-0.7-0.8c-0.8-0.4-1.2-0.6-1.3-0.6c-0.4-0.3-0.7-0.8-0.7-1.3
			c0-0.5,0.2-0.9,0.5-1.2c0.4-0.3,0.9-0.5,1.5-0.5c0.6,0,1.1,0.1,1.6,0.3v1.1c-0.6-0.2-1.1-0.4-1.5-0.4c-0.6,0-0.9,0.2-0.9,0.6
			c0,0.3,0.2,0.5,0.7,0.7c0.7,0.3,1.2,0.5,1.3,0.6C48.2,22.3,48.4,22.8,48.4,23.3z"/>
		<path class="st4" d="M54.2,22.4h-3.6c0,0.5,0.2,0.9,0.5,1.2c0.3,0.3,0.7,0.5,1.2,0.5c0.5,0,1-0.1,1.4-0.4l0.3,0.8
			c-0.6,0.4-1.2,0.6-2,0.6c-0.9,0-1.6-0.3-2.1-0.9c-0.4-0.6-0.7-1.3-0.7-2.1c0-0.8,0.2-1.6,0.7-2.1c0.5-0.6,1.1-0.9,1.8-0.9
			c0.8,0,1.3,0.3,1.8,0.8c0.4,0.5,0.7,1.3,0.7,2.2V22.4z M52.9,21.5c0-0.4-0.1-0.7-0.3-1c-0.2-0.3-0.5-0.5-0.9-0.5
			c-0.4,0-0.6,0.1-0.9,0.4c-0.2,0.3-0.3,0.6-0.3,1H52.9z"/>
		<path class="st4" d="M58.9,24.5c-0.6,0.4-1.1,0.6-1.8,0.6c-0.9,0-1.3-0.4-1.3-1.3v-3.6h-1v-1h1v-1.3l1.2-0.4v1.7h1.8l-0.4,1h-1.4
			v3.2c0,0.4,0.2,0.7,0.6,0.7c0.3,0,0.6-0.1,1-0.4L58.9,24.5z"/>
		<path class="st4" d="M70.9,25h-1.2v-5.1c0-0.3,0-0.6,0-0.9c-0.1,0.2-0.1,0.4-0.4,0.8l-2,2.9h-0.7l-2-2.9c-0.1-0.1-0.3-0.4-0.5-0.8
			c0,0.2,0,0.5,0,0.8V25H63v-8.1h1.2l2.3,3.4c0.2,0.3,0.4,0.6,0.5,0.8h0c0.1-0.3,0.3-0.5,0.5-0.8l2.2-3.4h1.2V25z"/>
		<path class="st4" d="M77,25h-1l-0.2-0.5c-0.5,0.4-1,0.7-1.7,0.7c-0.5,0-0.9-0.2-1.3-0.5c-0.3-0.3-0.5-0.8-0.5-1.3
			c0-0.6,0.2-1,0.6-1.4c0.4-0.3,1-0.5,1.7-0.5l1.1,0v-0.2c0-0.7-0.4-1.1-1.1-1.1c-0.5,0-1,0.2-1.5,0.5l-0.4-0.8
			c0.6-0.4,1.3-0.7,2.1-0.7c1.4,0,2.1,0.7,2.1,2.1v2.1C76.9,24.2,77,24.8,77,25z M75.7,23.6v-1.3l-0.9,0c-0.8,0-1.2,0.3-1.2,0.9
			c0,0.3,0.1,0.5,0.3,0.6c0.2,0.2,0.4,0.3,0.7,0.3C74.9,24.1,75.3,23.9,75.7,23.6z"/>
		<path class="st4" d="M83.3,25h-1.2v-3.5c0-0.9-0.3-1.3-0.9-1.3c-0.5,0-1,0.2-1.6,0.7V25h-1.2v-5.8h1l0.1,0.6
			c0.7-0.5,1.4-0.8,2-0.8c0.5,0,0.9,0.2,1.2,0.5c0.4,0.4,0.5,0.9,0.5,1.6V25z"/>
		<path class="st4" d="M89.1,25h-1l-0.2-0.5c-0.5,0.4-1,0.7-1.7,0.7c-0.5,0-0.9-0.2-1.3-0.5c-0.3-0.3-0.5-0.8-0.5-1.3
			c0-0.6,0.2-1,0.6-1.4c0.4-0.3,1-0.5,1.7-0.5l1,0v-0.2c0-0.7-0.4-1.1-1.1-1.1c-0.5,0-1,0.2-1.5,0.5l-0.4-0.8
			c0.6-0.4,1.3-0.7,2.1-0.7c1.4,0,2.1,0.7,2.1,2.1v2.1C89,24.2,89.1,24.8,89.1,25z M87.8,23.6v-1.3l-0.9,0c-0.8,0-1.2,0.3-1.2,0.9
			c0,0.3,0.1,0.5,0.3,0.6c0.2,0.2,0.4,0.3,0.7,0.3C87.1,24.1,87.4,23.9,87.8,23.6z"/>
		<path class="st4" d="M95.6,26c0,0.5-0.2,1-0.7,1.3c-0.5,0.4-1.3,0.6-2.3,0.6c-0.8,0-1.5-0.2-2-0.5c-0.5-0.3-0.7-0.7-0.7-1.2
			c0-0.6,0.3-1.1,1-1.4c-0.3-0.1-0.4-0.4-0.4-0.7c0-0.4,0.2-0.8,0.7-1.1c-0.3-0.2-0.5-0.4-0.7-0.7c-0.2-0.3-0.3-0.7-0.3-1
			c0-0.6,0.2-1.1,0.6-1.5c0.4-0.4,1-0.6,1.6-0.6c0.4,0,0.8,0.1,1.1,0.2c0,0,0.1,0,0.1,0c0.3-0.3,0.8-0.5,1.3-0.5c0.1,0,0.3,0,0.4,0
			l-0.3,1c-0.4-0.1-0.6-0.1-0.8,0c0.4,0.4,0.6,0.9,0.6,1.5c0,0.6-0.2,1.1-0.7,1.5c-0.4,0.4-1,0.6-1.6,0.6c-0.3,0-0.5,0-0.7-0.1
			c-0.1,0.2-0.2,0.4-0.2,0.5c0,0.2,0.3,0.4,1,0.5c1,0.1,1.6,0.3,1.9,0.4C95.2,24.9,95.6,25.4,95.6,26z M94.2,26.1
			c0-0.2-0.2-0.4-0.5-0.6c-0.2-0.1-0.6-0.2-1.1-0.2c-0.5-0.1-0.9-0.1-1-0.2C91.2,25.4,91,25.7,91,26c0,0.3,0.2,0.5,0.5,0.7
			c0.3,0.2,0.7,0.3,1.2,0.3c0.5,0,0.8-0.1,1.1-0.2C94.1,26.6,94.2,26.4,94.2,26.1z M92.5,20.1c-0.3,0-0.6,0.1-0.8,0.3
			c-0.2,0.2-0.3,0.5-0.3,0.8c0,0.3,0.1,0.6,0.3,0.9c0.2,0.2,0.5,0.3,0.8,0.3c0.3,0,0.6-0.1,0.8-0.3c0.2-0.2,0.3-0.5,0.3-0.9
			c0-0.3-0.1-0.6-0.3-0.8C93.1,20.2,92.9,20.1,92.5,20.1z"/>
		<path class="st4" d="M100.9,22.4h-3.6c0,0.5,0.2,0.9,0.5,1.2c0.3,0.3,0.7,0.5,1.2,0.5c0.5,0,1-0.1,1.4-0.4l0.3,0.8
			c-0.6,0.4-1.2,0.6-2,0.6c-0.9,0-1.6-0.3-2.1-0.9c-0.4-0.6-0.7-1.3-0.7-2.1c0-0.8,0.2-1.6,0.7-2.1c0.4-0.6,1.1-0.9,1.8-0.9
			c0.8,0,1.3,0.3,1.8,0.8c0.4,0.5,0.7,1.3,0.7,2.2V22.4z M99.6,21.5c0-0.4-0.1-0.7-0.3-1c-0.2-0.3-0.5-0.5-0.9-0.5
			c-0.3,0-0.6,0.1-0.9,0.4c-0.2,0.3-0.3,0.6-0.3,1H99.6z"/>
		<path class="st4" d="M110.5,25h-1.3v-3.6c0-0.4,0-0.7-0.1-0.8c-0.1-0.2-0.4-0.4-0.7-0.4c-0.5,0-1,0.2-1.5,0.7c0,0,0,0.1,0,0.2V25
			h-1.2v-3.6c0-0.8-0.3-1.2-0.9-1.2c-0.5,0-1,0.2-1.5,0.7V25h-1.2v-5.8h1l0.1,0.6c0.7-0.5,1.3-0.8,2-0.8c0.7,0,1.2,0.3,1.4,0.9
			c0.7-0.6,1.4-0.9,2-0.9c1.2,0,1.8,0.6,1.8,1.9V25z"/>
		<path class="st4" d="M116.6,22.4h-3.6c0,0.5,0.2,0.9,0.5,1.2c0.3,0.3,0.7,0.5,1.2,0.5c0.5,0,1-0.1,1.4-0.4l0.3,0.8
			c-0.6,0.4-1.2,0.6-2,0.6c-0.9,0-1.6-0.3-2.1-0.9c-0.4-0.6-0.7-1.3-0.7-2.1c0-0.8,0.2-1.6,0.7-2.1c0.5-0.6,1.1-0.9,1.8-0.9
			c0.8,0,1.3,0.3,1.8,0.8c0.4,0.5,0.7,1.3,0.7,2.2V22.4z M115.3,21.5c0-0.4-0.1-0.7-0.3-1c-0.2-0.3-0.5-0.5-0.9-0.5
			c-0.3,0-0.6,0.1-0.9,0.4c-0.2,0.3-0.3,0.6-0.3,1H115.3z"/>
		<path class="st4" d="M122.6,25h-1.2v-3.5c0-0.9-0.3-1.3-0.9-1.3c-0.5,0-1,0.2-1.6,0.7V25h-1.2v-5.8h1l0.1,0.6
			c0.7-0.5,1.4-0.8,2-0.8c0.5,0,0.9,0.2,1.2,0.5c0.4,0.4,0.6,0.9,0.6,1.6V25z"/>
		<path class="st4" d="M127.4,24.5c-0.6,0.4-1.1,0.6-1.8,0.6c-0.9,0-1.3-0.4-1.3-1.3v-3.6h-1v-1h1v-1.3l1.2-0.4v1.7h1.8l-0.4,1h-1.4
			v3.2c0,0.4,0.2,0.7,0.6,0.7c0.3,0,0.6-0.1,1-0.4L127.4,24.5z"/>
		<path class="st4" d="M41.9,7.8c0.9,0.5,1.4,1.3,1.4,2.3c0,1.7-1.2,2.9-3.6,2.9H33V3h6.7C41.6,3,43,4.1,43,5.8
			C43,6.7,42.6,7.3,41.9,7.8z M39.8,7.1c0.9,0,1.3-0.6,1.3-1.2c0-0.7-0.4-1.3-1.4-1.3h-4.8v2.5H39.8z M41.4,10.1
			c0-0.8-0.4-1.3-1.4-1.3h-5.1v2.6h4.8C40.9,11.3,41.4,10.9,41.4,10.1z"/>
		<path class="st4" d="M51,9.3h-3V13H46V3h6.6c2.2,0,3.5,1.3,3.5,3.2c0,1.8-1.3,2.8-2.9,3.1l3,3.7h-2.4L51,9.3z M52.4,7.6
			c1.2,0,1.9-0.6,1.9-1.5c0-0.9-0.6-1.5-1.6-1.5h-4.7v3H52.4z"/>
		<path class="st4" d="M63.5,3c3.2,0,5.3,2,5.3,5c0,2.8-2.2,5-5,5h-5.6V3H63.5z M63.5,11.3c2.2,0,3.3-1.4,3.3-3.3
			c0-1.9-1.1-3.3-3.3-3.3H60v6.6H63.5z"/>
	</g>
	<rect class="st11" width="132" height="28"/>
</g>
</svg>
